<svg width="35" height="35" viewBox="0 0 35 35" fill="none" xmlns="http://www.w3.org/2000/svg">
<path d="M31.432 5.83324C31.2995 5.81958 31.1659 5.81958 31.0334 5.83324H3.81118C3.63671 5.83593 3.46339 5.86209 3.2959 5.91102L17.3445 19.9013L31.432 5.83324Z" fill="black"/>
<path d="M32.8709 7.18457L18.7154 21.2818C18.351 21.6439 17.8582 21.8472 17.3445 21.8472C16.8308 21.8472 16.338 21.6439 15.9737 21.2818L1.94452 7.29151C1.90139 7.45003 1.87852 7.61336 1.87646 7.77763V27.2221C1.87646 27.7378 2.08133 28.2323 2.44598 28.597C2.81063 28.9617 3.30521 29.1665 3.82091 29.1665H31.0431C31.5588 29.1665 32.0534 28.9617 32.4181 28.597C32.7827 28.2323 32.9876 27.7378 32.9876 27.2221V7.77763C32.9798 7.57507 32.9405 7.37497 32.8709 7.18457ZM5.15285 27.2221H3.80146V25.8318L10.8695 18.8221L12.2404 20.1929L5.15285 27.2221ZM31.0237 27.2221H29.6626L22.5751 20.1929L23.9459 18.8221L31.014 25.8318L31.0237 27.2221Z" fill="black"/>
</svg>
