<svg width="35" height="35" viewBox="0 0 35 35" fill="none" xmlns="http://www.w3.org/2000/svg">
<path d="M14.3657 16.0747C14.6631 15.8594 14.8066 15.5039 14.8066 15.0151C14.8169 14.7827 14.769 14.5537 14.6665 14.3452C14.5742 14.1777 14.4375 14.0376 14.27 13.9385C14.0964 13.8332 13.9035 13.7635 13.7026 13.7334C13.4839 13.6924 13.2617 13.6719 13.043 13.6753H10.6401V16.3994H13.2412C13.689 16.4028 14.0684 16.2935 14.3657 16.0747ZM14.769 18.5356C14.4341 18.2793 13.9863 18.1528 13.4292 18.1528H10.6333V21.3657H13.3745C13.6309 21.3657 13.8667 21.3418 14.0957 21.2939C14.3124 21.2516 14.5189 21.168 14.7041 21.0479C14.8784 20.9351 15.0186 20.7812 15.1245 20.583C15.2271 20.3848 15.2783 20.1318 15.2783 19.8276C15.2783 19.2227 15.1074 18.7954 14.769 18.5356ZM17.5 2.1875C9.04395 2.1875 2.1875 9.04395 2.1875 17.5C2.1875 25.9561 9.04395 32.8125 17.5 32.8125C25.9561 32.8125 32.8125 25.9561 32.8125 17.5C32.8125 9.04395 25.9561 2.1875 17.5 2.1875ZM20.4565 11.9937H25.187V13.1455H20.4565V11.9937ZM17.5 21.4922C17.2787 21.9122 16.9628 22.2749 16.5771 22.5518C16.1738 22.832 15.7261 23.0371 15.251 23.1567C14.7539 23.2899 14.2411 23.3555 13.7266 23.3516H8.06641V11.6929H13.5693C14.1265 11.6929 14.6323 11.7441 15.0938 11.8398C15.5518 11.9355 15.9414 12.0996 16.2695 12.3218C16.5942 12.5439 16.8506 12.8413 17.0317 13.2104C17.2095 13.5762 17.3018 14.0342 17.3018 14.5776C17.3018 15.1655 17.1685 15.6509 16.9019 16.0439C16.6318 16.437 16.2422 16.7549 15.7124 17.0044C16.4336 17.2095 16.9634 17.5752 17.312 18.0879C17.6675 18.6074 17.8418 19.2295 17.8418 19.9609C17.8418 20.5557 17.729 21.0649 17.5 21.4922ZM27.0293 19.6875H20.9316C20.9316 20.3506 21.1606 20.9863 21.5059 21.3281C21.8545 21.6665 22.3535 21.8374 23.0063 21.8374C23.478 21.8374 23.8779 21.7178 24.2197 21.4819C24.5581 21.2461 24.7632 20.9966 24.8384 20.7368H26.8823C26.5542 21.752 26.0552 22.4766 25.3784 22.9141C24.7085 23.3516 23.8882 23.5703 22.9346 23.5703C22.2681 23.5703 21.6699 23.4609 21.1333 23.2524C20.6172 23.0508 20.1523 22.7432 19.7695 22.3467C19.3921 21.9395 19.1003 21.4606 18.9116 20.9385C18.7031 20.3608 18.6006 19.7524 18.6074 19.1406C18.6074 18.5083 18.7134 17.9204 18.9185 17.3735C19.3115 16.3105 20.1284 15.4595 21.1709 15.0186C21.728 14.7861 22.3262 14.6699 22.9312 14.6768C23.6489 14.6768 24.271 14.8135 24.811 15.0938C25.3309 15.3614 25.7823 15.745 26.1304 16.2148C26.4756 16.6831 26.7183 17.2163 26.8721 17.8179C27.019 18.4092 27.0703 19.0312 27.0293 19.6875ZM22.8594 16.4199C22.4902 16.4199 22.1792 16.4849 21.9399 16.6113C21.7007 16.7378 21.5024 16.895 21.3521 17.0762C21.2088 17.2511 21.103 17.4535 21.041 17.6709C20.9863 17.8521 20.9487 18.0366 20.9351 18.2246H24.7119C24.6572 17.6333 24.4521 17.1958 24.1787 16.8882C23.8916 16.584 23.4302 16.4199 22.8594 16.4199Z" fill="black"/>
</svg>
