<svg width="35" height="35" viewBox="0 0 35 35" fill="none" xmlns="http://www.w3.org/2000/svg">
<path d="M30.5477 12.1113C30.533 11.0068 30.3262 9.9133 29.9366 8.87967C29.5988 8.00781 29.0828 7.216 28.4217 6.55484C27.7605 5.89368 26.9687 5.3777 26.0969 5.03988C25.0765 4.65686 23.9986 4.44975 22.9089 4.42738C21.506 4.36467 21.0612 4.34717 17.5 4.34717C13.9387 4.34717 13.4823 4.34717 12.0896 4.42738C11.0004 4.44991 9.92299 4.65702 8.90311 5.03988C8.03111 5.37747 7.23918 5.89336 6.57799 6.55455C5.9168 7.21574 5.4009 8.00767 5.06331 8.87967C4.67953 9.89924 4.47287 10.9769 4.45227 12.0661C4.38956 13.4705 4.37061 13.9153 4.37061 17.4765C4.37061 21.0378 4.37061 21.4928 4.45227 22.887C4.47415 23.9778 4.67977 25.054 5.06331 26.0763C5.40147 26.9481 5.91775 27.7397 6.57916 28.4006C7.24057 29.0615 8.03257 29.5772 8.90456 29.9147C9.92165 30.3131 10.9993 30.535 12.091 30.5709C13.4954 30.6336 13.9402 30.6526 17.5014 30.6526C21.0627 30.6526 21.5191 30.6526 22.9119 30.5709C24.0015 30.5495 25.0795 30.3428 26.0998 29.9599C26.9714 29.6217 27.763 29.1056 28.4241 28.4444C29.0852 27.7833 29.6013 26.9917 29.9396 26.1201C30.3231 25.0993 30.5287 24.023 30.5506 22.9307C30.6133 21.5278 30.6323 21.083 30.6323 17.5203C30.6294 13.959 30.6294 13.507 30.5477 12.1113ZM17.4912 24.2111C13.7666 24.2111 10.7494 21.1938 10.7494 17.4693C10.7494 13.7447 13.7666 10.7274 17.4912 10.7274C19.2793 10.7274 20.9941 11.4377 22.2585 12.702C23.5228 13.9664 24.2331 15.6812 24.2331 17.4693C24.2331 19.2573 23.5228 20.9721 22.2585 22.2365C20.9941 23.5008 19.2793 24.2111 17.4912 24.2111ZM24.5014 12.0501C23.6308 12.0501 22.9294 11.3472 22.9294 10.478C22.9294 10.2716 22.97 10.0673 23.049 9.87667C23.1279 9.68603 23.2437 9.5128 23.3896 9.36689C23.5355 9.22097 23.7087 9.10523 23.8994 9.02626C24.09 8.94729 24.2944 8.90665 24.5007 8.90665C24.7071 8.90665 24.9114 8.94729 25.102 9.02626C25.2927 9.10523 25.4659 9.22097 25.6118 9.36689C25.7577 9.5128 25.8735 9.68603 25.9525 9.87667C26.0314 10.0673 26.0721 10.2716 26.0721 10.478C26.0721 11.3472 25.3691 12.0501 24.5014 12.0501Z" fill="black"/>
<path d="M17.4912 21.8488C19.9099 21.8488 21.8706 19.8881 21.8706 17.4695C21.8706 15.0508 19.9099 13.0901 17.4912 13.0901C15.0725 13.0901 13.1118 15.0508 13.1118 17.4695C13.1118 19.8881 15.0725 21.8488 17.4912 21.8488Z" fill="black"/>
</svg>
