<svg width="35" height="35" viewBox="0 0 35 35" fill="none" xmlns="http://www.w3.org/2000/svg">
<path d="M17.5 35C15.1302 35 12.863 34.5386 10.6982 33.6157C8.53353 32.6929 6.67074 31.451 5.10986 29.8901C3.54899 28.3293 2.30713 26.4665 1.38428 24.3018C0.461426 22.137 0 19.8698 0 17.5C0 15.1302 0.461426 12.863 1.38428 10.6982C2.30713 8.53353 3.54899 6.67074 5.10986 5.10986C6.67074 3.54899 8.53353 2.30713 10.6982 1.38428C12.863 0.461426 15.1302 0 17.5 0C19.8698 0 22.137 0.461426 24.3018 1.38428C26.4665 2.30713 28.3293 3.54899 29.8901 5.10986C31.451 6.67074 32.6929 8.53353 33.6157 10.6982C34.5386 12.863 35 15.1302 35 17.5C35 19.8698 34.5386 22.137 33.6157 24.3018C32.6929 26.4665 31.451 28.3293 29.8901 29.8901C28.3293 31.451 26.4665 32.6929 24.3018 33.6157C22.137 34.5386 19.8698 35 17.5 35ZM28.0615 20.3369C26.6488 19.904 24.9512 19.6875 22.9688 19.6875C22.3991 19.6875 21.7725 19.79 21.0889 19.9951C21.5218 22.4788 21.7839 24.9854 21.875 27.5146C23.3789 26.8538 24.6777 25.8968 25.7715 24.6436C26.8652 23.3903 27.6286 21.9548 28.0615 20.3369ZM19.6533 28.2324C19.585 25.9538 19.3115 23.5384 18.833 20.9863L17.5 21.875C16.2923 22.7409 15.341 23.6182 14.646 24.5068C13.951 25.3955 13.4896 26.4209 13.2617 27.583C14.6061 28.1527 16.0189 28.4375 17.5 28.4375C18.2292 28.4375 18.9469 28.3691 19.6533 28.2324ZM6.5625 17.5C6.5625 19.3001 6.97266 20.9806 7.79297 22.5415C8.61328 24.1024 9.72982 25.3841 11.1426 26.3867C12.0085 23.7435 13.5352 21.6471 15.7227 20.0977C16.5885 19.4824 17.4544 18.9811 18.3203 18.5938C18.1152 17.7507 17.8988 16.9987 17.6709 16.3379C15.9619 17.1354 14.196 17.5228 12.373 17.5C10.3678 17.4772 8.45378 17.0898 6.63086 16.3379C6.58529 16.748 6.5625 17.1354 6.5625 17.5ZM7.10938 14.0479C8.88672 14.891 10.5273 15.3125 12.0312 15.3125C13.444 15.3125 15.0163 14.9251 16.748 14.1504C15.5176 11.6211 13.7288 9.72982 11.3818 8.47656C9.30827 9.86654 7.88411 11.7236 7.10938 14.0479ZM17.5 6.5625C16.2012 6.5625 14.9023 6.81315 13.6035 7.31445C15.9505 8.54492 17.7051 10.402 18.8672 12.8857C20.9635 11.3818 22.251 9.71842 22.7295 7.89551C21.1117 7.00684 19.3685 6.5625 17.5 6.5625ZM24.5068 9.0918C23.6182 11.5299 22.137 13.4782 20.0635 14.9365L19.7559 15.1416C20.0293 15.9163 20.3027 16.805 20.5762 17.8076C21.5332 17.6025 22.4902 17.5 23.4473 17.5C25.0879 17.5228 26.7285 17.8076 28.3691 18.3545C28.4147 17.8076 28.4375 17.5228 28.4375 17.5C28.4375 15.8366 28.09 14.2757 27.395 12.8174C26.7 11.359 25.7373 10.1172 24.5068 9.0918Z" fill="black"/>
</svg>
