<svg width="40" height="40" viewBox="0 0 40 40" fill="none" xmlns="http://www.w3.org/2000/svg">
<path d="M26.6667 26.6667C30.3486 26.6667 33.3334 23.6819 33.3334 20C33.3334 16.3181 30.3486 13.3334 26.6667 13.3334C22.9848 13.3334 20 16.3181 20 20C20 23.6819 22.9848 26.6667 26.6667 26.6667Z" fill="#19BCFE"/>
<path fill-rule="evenodd" clip-rule="evenodd" d="M13.3334 40C15.1015 40 16.7972 39.2976 18.0474 38.0473C19.2976 36.7971 20 35.1014 20 33.3333V26.6666H13.3334C11.5652 26.6666 9.86955 27.369 8.61931 28.6192C7.36907 29.8695 6.66669 31.5652 6.66669 33.3333C6.66669 35.1014 7.36907 36.7971 8.61931 38.0473C9.86955 39.2976 11.5652 40 13.3334 40Z" fill="#09CF83"/>
<path fill-rule="evenodd" clip-rule="evenodd" d="M13.3334 26.6667H20V13.3334H13.3334C11.5652 13.3334 9.86955 14.0358 8.61931 15.286C7.36907 16.5362 6.66669 18.2319 6.66669 20C6.66669 21.7682 7.36907 23.4638 8.61931 24.7141C9.86955 25.9643 11.5652 26.6667 13.3334 26.6667Z" fill="#A259FF"/>
<path fill-rule="evenodd" clip-rule="evenodd" d="M13.3334 13.3333H20V0H13.3334C11.5652 0 9.86955 0.702379 8.61931 1.95262C7.36907 3.20286 6.66669 4.89856 6.66669 6.66667C6.66669 8.43478 7.36907 10.1305 8.61931 11.3807C9.86955 12.631 11.5652 13.3333 13.3334 13.3333Z" fill="#F24E1E"/>
<path fill-rule="evenodd" clip-rule="evenodd" d="M26.6667 13.3333H20V0H26.6667C28.4348 0 30.1305 0.702379 31.3807 1.95262C32.631 3.20286 33.3334 4.89856 33.3334 6.66667C33.3334 8.43478 32.631 10.1305 31.3807 11.3807C30.1305 12.631 28.4348 13.3333 26.6667 13.3333Z" fill="#FF7262"/>
</svg>
