<svg width="40" height="40" viewBox="0 0 40 40" fill="none" xmlns="http://www.w3.org/2000/svg">
<path d="M7.37754 34.0013L4.56879 2.5H35.4313L32.6188 33.9963L19.9813 37.5L7.37754 34.0013Z" fill="#E44F26"/>
<path d="M20 34.8225L30.2125 31.9913L32.615 5.07629H20V34.8225Z" fill="#F1662A"/>
<path d="M20 16.7587H14.8875L14.535 12.8025H20V8.93872H10.3125L10.405 9.97622L11.3538 20.6225H20V16.7587Z" fill="#EBEBEB"/>
<path d="M19.9999 26.7924L19.9824 26.7974L15.6799 25.6362L15.4049 22.5549H11.5262L12.0674 28.6199L19.9824 30.8174L19.9999 30.8124V26.7924Z" fill="#EBEBEB"/>
<path d="M19.9863 16.7588V20.6225H24.7438L24.2963 25.6338L19.9863 26.7963V30.8163L27.9075 28.62L27.965 27.9675L28.8725 17.7963L28.9675 16.7588H19.9863Z" fill="white"/>
<path d="M19.9863 8.93872V12.8025H29.3188L29.3963 11.935L29.5725 9.97622L29.665 8.93872H19.9863Z" fill="white"/>
</svg>
