<svg width="40" height="40" viewBox="0 0 40 40" fill="none" xmlns="http://www.w3.org/2000/svg">
<path d="M0 0H40V40H0V0Z" fill="#F7DF1E"/>
<path d="M10.5174 33.4269L13.5784 31.5744C14.169 32.6214 14.7062 33.5073 15.9948 33.5073C17.2299 33.5073 18.0088 33.0242 18.0088 31.1448V18.3639H21.7677V31.198C21.7677 35.0912 19.4856 36.8634 16.1559 36.8634C13.1488 36.8634 11.4034 35.3061 10.5173 33.4265" fill="black"/>
<path d="M23.8095 33.024L26.8702 31.2519C27.6759 32.5677 28.7231 33.5343 30.5756 33.5343C32.1333 33.5343 33.1264 32.7555 33.1264 31.6815C33.1264 30.3927 32.1061 29.9361 30.3877 29.1846L29.4481 28.7815C26.7361 27.6272 24.9372 26.1772 24.9372 23.1163C24.9372 20.2969 27.0852 18.1488 30.4416 18.1488C32.8313 18.1488 34.5497 18.9813 35.7847 21.1561L32.8578 23.0358C32.2133 21.8813 31.5155 21.4249 30.4414 21.4249C29.3405 21.4249 28.6424 22.123 28.6424 23.0358C28.6424 24.1635 29.3405 24.6202 30.9514 25.3183L31.8911 25.721C35.0864 27.0905 36.8853 28.4866 36.8853 31.6279C36.8853 35.0113 34.2272 36.8638 30.6561 36.8638C27.1656 36.8638 24.9102 35.1991 23.8094 33.0241" fill="black"/>
</svg>
